<mxfile host="Electron" modified="2024-02-16T06:16:41.199Z" agent="Mozilla/5.0 (Windows NT 10.0; Win64; x64) AppleWebKit/537.36 (KHTML, like Gecko) draw.io/21.2.8 Chrome/112.0.5615.165 Electron/24.2.0 Safari/537.36" etag="SrzETiV7yyiX7iD3GWHn" version="21.2.8" type="device">
  <diagram name="Page-1" id="2XWkQP5S-hDbL94sL5Vg">
    <mxGraphModel dx="2058" dy="1180" grid="1" gridSize="10" guides="1" tooltips="1" connect="1" arrows="1" fold="1" page="1" pageScale="1" pageWidth="3300" pageHeight="4681" background="#999999" math="0" shadow="0">
      <root>
        <mxCell id="0" />
        <mxCell id="1" parent="0" />
        <mxCell id="APLwThIm-aDqV8bCMrbt-1" value="Repeater" style="rounded=0;whiteSpace=wrap;html=1;fontSize=25;fillColor=#dae8fc;strokeColor=#6c8ebf;" parent="1" vertex="1">
          <mxGeometry x="1298" y="140" width="650" height="60" as="geometry" />
        </mxCell>
        <mxCell id="0jUmkpesdYumPkx5Lmyd-1" value="" style="shape=image;verticalLabelPosition=bottom;labelBackgroundColor=default;verticalAlign=top;aspect=fixed;imageAspect=0;image=data:image/png,iVBORw0KGgoAAAANSUhEUgAAAo0AAAILCAYAAACNRKaIAAAAAXNSR0IArs4c6QAAAARnQU1BAACxjwv8YQUAAAAJcEhZcwAADsMAAA7DAcdvqGQAADMASURBVHhe7d0JgBxnfSfsf89oZnRZhy1ZAtsgybcNNpj7NIcN+QghWQghWRMCgSyw2fCRLwnm2iSwiTkMCWSBhEAgwSFACARwNtnEBhPAxuYMPsDxJRlblmzd0mikOfurqq4eteZ6Z3qkufp5NNVd9VZVV3XV29U/vdXdVTnv/EdVo1CNatlXVx0uGJ6k3pcwuanG1OSs01jiLJnZJzr/tk+rmEd7RiWaeyrlPROwkSYyK1un6YXOr305955m7YGL2yM3hUrl6IXWBkePL0PjiMCYDRwZLEZPMDxXTGONmpx17m2Dicz89pmO+bVtZ4MtRCs5+g2N0ZreQjM/47wyIktN0dzbRo1h8Ehv43CtPzdWcMxC4/lHGhQzI1sXjww2Bsnc0UNHmWBUyjRmbV7jBpiCWVnXWdHkM22RDdQ69QCYjCNvszOo6YXOytrOuNnZPM3NfPwWeWRk0VcGxFHhsLgZZ9y5551fe887KhRmfbW/ov/oTDVyeCzJCcbX5KzTWOI0tMrzbBXzaOvOs4qg3h4fRw7lC9ysPNGW2bozruktO61dMvP7cy4+z2JsGQhz9VBY3tVvjpquMTjWQuOIwDgcCrOeRR0dsWzZ0ujs6IzOrs5ob28/ru8AjWvCGObV5pn5lVV7gNlWe3udabOz1KbMo1WdDWWEOz6yhx4cHIze3t7o6+uPnp6eGOjvz8pryzwqIBY3tf5ccXr63HPPa2g4PDownnDCCbFy1crYtfdAHDrcH4ezBfQPDJQTzCNNJ4kjGwvmtryuTraiH8t6PdYyGx+/6RcfTNIk69iCPJwv1NeX48bx1LFoUSzu6oglXZ2xZvXK2Lt3XxzYvz97jdReJBMGx3Oy0FjrPRIY8881rlmzJitpi20790Rf/zwMio2aqn9HNhLMffX6OpnKPlbdzudrps6PtbzGx2nqxdeEqTx/FpaJ6mDDuGaq95y30Ou71/Px1tmxKB625sRY1F6Jhx7aUZZmL5fi9VJ70dR6a/1txW22Y2qBMb+vxooTTsj62uLebTvmbmDM13esDlrOVN4Nx5t2Ko/RqNn54FiZZB30XgGj5Bnv3m0PxcBg7exy7cvQRzLh8G2tIEuGWU99ZH6fN1vmp6TzFsZ5qfa8jhg5PCneCJkvRtbV2ai7jcucrfXJX+hNvdhZEPJ61tjVjVW2kCzU51W30J/f3LFt5+5YtXJlkQEbM+HI42pbfbA2MmLZ8mXFZxjn9Cnpo5/DaOOOn0wFVEmZL5qpq6kXT7PydRlvfUaW16cdb3o4HuZgnctfjvWuaQv9deQ4MRPyzLdz775YumxpMVzPhMMBshxoKwYaxubfks6/9DLv5U+pfFo19YpXP3CM18FcNx/r6nivsbGex3jTwiyqv6eM7Jo1ct7pPNaCf704HsyEQ719RQasJ8b6qep63czv2oYrajYy781/Vif/ljQw10z2wDnRNHPxwNu4TiPXb7z1nYvPg/mhrDv5G15jNyXHqf5NeT3g2Dnc2x9dXV21ajjcmFhWy3K4ctbZ5xRFteFqbHjkhrjt7vuKkeNZsXxZdCxqL4cmr39gMPZ3HyyHmlRb7ynyBsNcU6+TU6nQU6nHjY873+v/WNuome0HjUbUndTLZLyq1uzL61g/XmGhvx683o+3809/ZGy5d0vWVxn+BnXjfREa66en8/sNGx4ZP777/mJ4PH/63nfF6WecUQ6NrX5x663bdw4H1oP7d8X/96Y3R1vb1APnsKbqzLRehXCMjayPk63UqXo88nEWUr1vfG7Nbr9G9cdo6oDCgjLNOjCdl9lEi27qcVuhPnvNHk/nnf6I2LLl3oagWKuI9eHi29O54c81TsKqlSvi/HPOnLA77+wziu7Si58cz3tWrVu75qQpLWdU3WiqrkznFQ3NyuvdZOvedOto/sIY+eJYqPV+rOc1Xtl426CxfKJ5x5sfpqj+Eh35Up2oio18SVNq7nX5v37/7fHTO26LrXffPmaXj8unmWtu+Or/jac+6Ynl0Gj5uOuv/Zdy6Fipn33O+oZ7aneVs846uyiqj5hMS+OnPv7nceqpp8eXvnlnVNqqta4974biBReeEevXrYzu8jT0smXL4gvXby76N57QEy9/1WuivX1RMTzSrd+/IVavWlUORXzyU5+Ot//hH5dDzXLgZ6aNrHPlq21Yavx4xqvLY82v3tdMdtvUp5toHAvXyH1crwdT3PdTqT4jp53sdLn6tKPGTXF957WpPdc8FF76sz8f2x58qCw52omrV8U3rvmXeMRZ55clc0MeCj/0gSvjf7zx9+KGm75TltZMNK5ZtZbG+unpWgUrLh9Y68m/PT11+cyVSnts3tcdWw4ciHt79sd9vfvi/v690d8/lAXQrCv/1bV3DpZ9E3vxL/9qnLLpvHjxy341XvWKy+JJT3hcOSalWKuya86rX/ny+NbX/rkcgmOlsU42Uz9T9XrkuGaWsVCNtS3GerMZbxu30pswR+T7vYl9P3KWiR6ivoj6NGNVvym/lKc8Q8tob28vAuP+/fvH7Lbc+9NimrkmD4N5KMzDYWOL4/EIjJPRVGgcHKrV8rUndUWlcyD2DeyPHYd3xYOHapegqYx4oSxefTiWrukphxLKeW/67vdj85Z7awNJI18o+XC9g5k0Xp0bWR/r7xYjXiyjTLUOq/OjjbVNJrv9Z4r9NruO4fafTtXKV6OxSxlzGcfwucxlc+WlOwNGBsfZCoy5pkJjfV/95MH7Y/PebbF3YE8cigPRV+kuyqtlnS0bNGPZqu5Yurw2bkINlSBv9ct/nTwPj7k/+sO3xdZ7flx0+Wnsury/Nu62omtsKcxbKevlefekJ1xUlH/yLz80ovxxxfLe+ftviY0bHlmU5Y+Zu/oLfzc8Xd6fy6e/9fvXD4+DyR/lc8fjaDeV5beiqW6ffB8dy/000fLr5VNZP469ibb/RPsvVx+fmu44qFfVo6rrDK/DbDmWL9E5rjE4zlZgzDV9ejp3KAuJHUv6o2Nxfyzq6ouOrCtkO7IeGHPnrD0tzli1qRwqNVb0epf54ueuyoLYj4tT04963NOKsjzQPeuZTy9OW+fdl67+P1nw+3AxLvesZz4tKz+/6PKgWQ98X/zcp4bL89Pd73/PHxXlr/pv/2O4/JOf+rt4+5t/J/7qr/82fv+d7ypaN/Py/LOUebjcuWv38LS5fF1yq1evih/dcttwORx7LXLgXzBmen+pHzOjcTsfp23e8B44LcfiMSZh690/mVR3XOWftys+c5d1M/S8Gb6MYLnF8y/DTGHjF2Ex6zq68q4hNI7Yh2esPr3oJiMPd3kwzFv86i2DT3/qU8oWwFpLYx4ozzwjD6G1F/DvXP4/i/vcl67+57jw0ecPh7t6K2EeRvPHqKuXv+oV/7UsGS1fxvMuefbwtBc99sJsXZ5cjNuzZ+8x+JIOC0OtHqblr4rUC6w8CE76MZmayW7Xxv3Q2I2nPm68aSaz76citTyak2/Pkd1IY42v799x9nPjpBMZZ/ZRRi6+7qjhySywOaecfu6kuhlTfmFjIWs8Jd14qvqYG66D2U39m9NZf62ouIxg82qBsRYWO/P7zlporH0T+8jC+vr749Chw+Vwpj5qAvk3p+stg7l/u/a64Ra/vHv6c15Qjhktbx3M1VsNG7tcHgBf/LJXFMN5S+NE8tbHxvnzVkpaXf1oXe8mI1Xpp/JYTE/jdp7qNh9r+pFlk33M+nT14+UkDoyFZpfH8ZHY/o2jm91VE1UPu79msi+feWjkZxhHfsZxJjUXGrNK2tt7KJ605vR4/Ooz46IVZ8Vjlp0bFyw5vyivTVKryXl+HBoaisGsm4q8FS8/1Zy3GH7rhm8XLX7jed1vvKrsi6Ll8Fs33Ficbs5bFustjiPVPyuZn9quu/W2nxTLrLvzrnsmbImkFTVzhF7AR7N5K9+Pzb7bNs433mOkHrs+fqzp8rLGrtFY0+fGK2dWjbVbJrOr6oeM/L7x8OFQMrEJts/g4GDxszrjWb9uXTHNXDPel15mKzg2FRrz/Hfu2afFa599Sbz24ufFbzzj/4nXPONF8eqn/Xycc/apsXTpsjj55LVx4kknRkdnRxEa29qmflDLP7v4zt9/axEA85bG+mnivKt/bjG3JltOvTyfLp8+l7cS5l9uqY+rf5HlBz/80XBZfpq5rh4k8/L88eutivVp827yPwHEwnO83pi94c8/+T5L7bfxxk91f9eX1ezymBXj7Y7JBj8BsTn5dhtj2/3N336m+B3GsX7YO+++882vFdPMJfnvI175x+8YFRjr6sHxfVe8syw5/ipnnnV2tnnLX//ObjZs2BA/vmfiH/d+42+9Ph574YXl0GhtbW1Fl6f2xivA3HzzLXHln34wGzf2j3uPb/yDYf4t5le/7g3DgQ+Or2bfmMc4ihW80S98jfs+lSSORX0Yr65xfI3Y7mPtyqnsmnz+kdM3VX2OUX3IH+ZYVM/jpSFrFObyuk5BHhyndCW9aTpvU/nj3tn2K84YZ8uvfWS0dv64qdCYP4HqUBYIy+HJKhbY1l4ueirGn15oZGZNte7WjfVqafaxmH/q+3+m9vlUj84cO8do20+lqjQuctR8x2h98oeZy4esBRoaZ1oqNDb3kzvZI7S1LyouBziVLp+nflmayZvq9DAX5fV4ZEfrmOl9rn61rDw7HaOcOMrxfGzmhWl9e3rKjkOFy3/LUSsjAHPDHAnsxzPcCY4ta+ZCo0rGvDbTLUUwXerrvDaV98z64WnMXX6M6sGEy6BVzGxLY1JjrVQ7mWnj1Tf1kIWm8Rhb7zh2jvP2zAPleKFyzEXbvxwbMxMaJ/U/pokqdf0VMqkHgibU65+DKwvJWPV5vDqu7h9bx2B7jvWW11g2pbfEFtu/4sJxkYXGI9+cnr1t7GDFbBpZ/xqH1U1gjpgrQWi+HBaLbFN2TFqxubKb4c1W9uR3x7+lcXipE0lNVK+h3sA51sarU3m5+sZCMJV6rM7PmvE2ff72WO8mY8LpjuH+nez6sKAcu9DYWLEbu0lLzeBgxrGmTtFq1Pk5qb5bprJ76tM2vt+OfAud6C0VmjD90DhWRZ2UvMY7gDFb1D1aSTNphBkxcnNPZvPXp5nMtE2/R0/CsXjs+mMcr3XkmKqcedZZtSvUlJ9p3LhhQ9zxwn8rRgIA0BrO+qfnxeYtW2r/HymuBlNew6+8MMvMfHsaAIB5TWgEACBJaAQAIEloBAAgSWgEACBJaAQAIEloBAAgqa32g5r1604XP9hY9AEA0DqKNFj+bneRBxv7M1oaAQBIEhoBAEgSGgEASBIaAQBIEhoBAEgSGgEASBIaAQBIEhoBAEgSGoGFpfeG2Pdnp8X9b78gdt+2oywEYLqERmCBGYihgw9m3e6oVitlGQDT1VZcGKZ2dZj8ajH1XgAAWkw9Bx7JhEfCoZZGAACShEYAAJKERqDlVA/eFoeuf2vs+tizYvuVF8T2Dzwvdn7m8jhw531jf0Rn8N44/K0/jn3/+u7ovmd7VtAbg1v+JvZe9TPx4PsvjO1/cmns/Ke/jr7u/tr0AAuQ0Ai0kL7ov+Else0dj44dn39XHLztG9G37cfRd+810XPTe2PPR86P7Z/9XAwMlpMP646+710R+/7lT+PQtp9Ez1eeHdv+7JWx/wfXRO/9N0ffT6+NnmtfFdvf95I48MDBch6AhUVoBFpKteehqC55XCx74edj3f98KE57T3ec9kf/GWt/5tJorxyI/pt+N/bemrcmjmUoqne8K/Z8e28sefHX4+H/a0+c9sc/jfWveGN0LskOp3uvjn1f/pvoHxU6AeY/oRFoIZVoe+Tlsfbym+KkS34xuk5aE5WOxVFZdlYsef7HY9Wj1mWpcmv03nxjFg/HsjMO33ZfLHnFv8dJT784Fi1fEZWlp0XnRe+PtS/5+Sx0ZrFyy2fi0A6nqYGFR2gEWkhHLDrzhdG5dIxDX+WU6Dr70dlBsRpDu++KwVGthfmnHSvRfv7vx8pz1taKhrVF+3mviSWr2yP67on+HfvKcoCFQ2gEWle1P6o9W2Pg/n+PQ9//WPTct79W3n8gqqOaGvMfCl8S7ac9KtrG+s3wjpOjfWlH9pi9MXT4cFkIsHAIjUBrqR6MgVveFbs/elE88LaVcd/bTosH3ves2HHV62Pvjd+pnZbOf9V2TMtj0Ylrivg4SvvqLDR2ZT3ZvENjn9wGmM+ERmCBGcxCW+1UclRGxLvBO+LgVRfGtk+8Nbpv/0kMLb0gljz+DbHy5z8Wa1779Vj3Sy8rPpc4aj4A8o/vVGu/S1b8zzrrigGAeap/dwz2ZsGxsjTaujrLwtxgDHz/TbH3h3dHdcXPxerf3hqnvv3GWHvZB2Lls18TS8+9ODqWt5fTArSgWiAsM2HeW8uF5ZCWRmCB6dkaQ73ZIa7zlFi0cmlZmNsd/f/5vRisdkXnE98eyx9xYlle1x+DOzbXGinHPT0N0LqERmAB6Y/+n3wh+nojKmufEV2rGloOh3bGwJ78W82dUVm+cvTnEvtujp5bbnWyBWAcQiMwjw1Gtb/+m4jVqG79aOy97oYYipXR9fiXRUdHOSrXtj4Wrc1bFw9E/3/8fREshw3eF4f+9Xei+4FDtWEfaQQYRWgE5q/q/XHwM0+M7X/6zHjwyo2x9U/eEIf2Dkbbpstj1ZPPG5H9VkfXU14ZnV0RQ5v/IB5899Nj5z/8Xuz57C9k/Y+JndcfiqUXv6j2RRipEWAUoRGYxypR6d0affd+M3q33htD1ROi47F/Emtfc3kRDkdq2/CWWHPZ78bilV1R3XN99HzrfXHgxn+KvupTY+Wr/z5OOPWkqHR0ZV1jE2UuW07nsqx8aVTGPWpmQbMjm2bRkgmmAZi/KmeccWbtI9/Zbf5v44aNcefPXVOMBJjz+vfE4O67YqB3cbSfdFYsWjZGWhxpqCeG9m2Jgb3dUVmxqfbbi3njYv6L3sWverdnCXNEa+PQQO2+sqjIh2OqZtPkB9SJpgGYo868+tLYvGVz/t/k7BhW3GZ3ZX/W+f8wML91rI72dU+Irkc8enKBMde2NNpWnxedG58YHfn1p+sBL28ibMsC31iXfCnKE2EwD4upaQDmKaERAIAkoREAgCShEQCAJKERAICk4dBY+wZ10QsAQCvKsmBjHKz154VVLY0AAKQJjQAAJAmNAAAkCY0AACQJjQAAJAmNAAAkCY0AACRVzjjjzGr+GzzV/DbrNm7cGNdee01tLAAALeGSSy6NzZs3Z+mwkv1lXV5Y9Gd32T8tjQAAJI3Z0njnz2lpBABoJWdenWhpzANjlhbLDgCAVjWcC6vVhv5audPTAAAkCY0AACQJjQAAJAmNAAAkCY0AACQJjQAAJAmNAAAkCY0AACQJjQAAJAmNAAAkCY0AACQVobGaX1CwuK5g7R8AAK2llgGLQHgkDQ73V7U0AgCQJjQCTFZ1MGIo64b/Cw7QOoRGgMkYvC32f3h93Pfm82LXrQ+WhQCto3L6GWdWM9n/nGufZ9y4cWPc9XPXlqMB5rLD0XfN82PH12+bsPGvsvSSWPX6v4tlJ07j/8l5aPzfT4y9W06Ipa/8Uax5zLpyBMDCcMbVl8TmzZujkv2LSnabd/mIol9LIzDf9e+LoYO7JuwGD/U4owwwTUIjsCC0n//nsf6dO+PUK3aN7t56VSxb5XAHMB2OosCCUG1fFe0rToq2pSeO0a2MiqMdwLQ4jAIAkCQ0Aq3r8O1x6N9/O3Z++Emx7d0XxPYPvTh2f/UL0d8zWE4wjuIDkkMx9NA/x4Ev/mI89KePjW3ve2o8dNWbo/vu+3x+EliQhEagBQ3G4B1viwf/6NGx4x8/ED13fjf6H7wt+u76x+i++hdj2xWXxr7Ne8ppx9C3NXqv+4XYfuULY883vhCHf3pz9N//7Tj8/ffE7g+dF9s//4UYSOROgPmmrXYNwfI/zv57DLSAoS3vjJ2fuCJ6Dy6Ojsf9WZz8tm1x6nv2xClv/qdYee6pUem+Lvb/7RujZ99QOUejoRi6572x+9rvRvtTPhnr6vO+/Ztx4pMvzA6q3dF//atj19f/wyEVmHeKX2Es+2s/x1jKerQ0AgtD9w/i0I++GD03j+4Ob91ZTpTp+14c+OL7o/fwkui4+Mux7uW/FYvXrou2zhXRvv5nY+Wr/jFWbDghqru+EPu/86Mxgt+OOPzdb8ain/16nPziX4uutetr8655eix/2XWx9tmPiUrsi95vvj8OHShnAVgAhEZgQRi658rY/cmXxM5PjOwui70/2jwc/obu+vM4eP/BiJP+a6y69DnRVvxybYPOx8Xypz4rOzgejIGffD0GxmhsbNvwxlj1hLNrP3rbqLI6up75e7FkRXZo3XddHNq8oxwBMP8JjcCCUFnznFj6+JfHsif86ojupdG19oRyqoPRf/d3Y3CoEu2nPiM6Fh2Oav+IbuBQxPJToy07Og7tuSUGDpezDuuKRWc8OxZ1lIMjrXh8dJ28LKK6K/q33T9GSyXA/CQ0AgtC5eG/EatfflWcdNmnRnWrn3BO2Sp4MAZ378iCXDUGb351PPCWE+K+y0d0b1oZWz/+0VoLY//+LEQWMzZYHu1r149uZaxrOzEWrVqR9fTHUPdeoRFYMIRGoHVUe6Pa15/1VKKy4qzoWHfuON350fGwR0fHySdHpfyy4BHtUWlvL/vH0h/V/nIZbYvGD5cA84zQCLSOyuLsryvvifZzrox1b7o5Hnb5BN0bPhJLVo6MfUNRHRzrW9WlwT0xsP9g1tMZlRNW1coAFgChEWghK2LR+lOzyDgUQzv+MybKfuM7EIM7Hhj/tHP3j6Jv16Esl66NzlNO0dIILBhCI9BCumLR6c+IRe0RQ/d+LLrv2l2WT0Vv9N/y6ejtKQePcij6vvNncWh/lkZPvDSWPOLEshxg/hMagZbS9shfj+WbVkcM3h7dX/jNOPDT0cGxevAHcfD/vCV6doz6Fkyhuv3jsedLfx39vY3tjYdj4AdviF3X3BTVWBVdT/vNWLysHAWwAAiNQGtpPy+Wv/TKWLq6I6oPfTb2fPDMeOADL4hd/3B57P3ya2Pnh86LB/7wCbHrm9+NocpYJ5dPjsVP/S8R//Ga2H7FRfHQ37w29vz9L8dD7z09tl318ejvWxSLLnhvnPiM/Ee+ARYOoRGY3zqXR6V9WbQtHu+HE0ernPzqOOn//edY9ZhHZQfBPTGw5V/i4LfeG/uv+8voufueqJ70/Fjx0g/E0pOO/pZ0pWNJVPKrv2y8PNa84k3RVbk9Dv/wL+PADZ+Lww9si2rX2bHkBVfHulf8RnRMfnUA5oXKptPPqOYXFKzm1xfM+jZt3Bh3vejacjTAHFcdjOrQUPHzNjFmy2BC7/YY2HVfDB46HJWutdF+4oZoX7q4HDnCUHm6upIvKx8+GIO77oiBA9m8y06LRWtOibZ27YvA/HTGVy6JezZvLg6llfwgl/VUii4fW9HSCMxzlfx3EzuKg1tTutbHooc/IbpOf0Z0nnrO+IExlwfTIpzWh5dF+9rHRtemp0TnulMFRmBBExoBAEgSGgEASBIaAQBIEhoBAEgSGgEASBIaAQBIEhoBAEgSGgEASBIaAQBIqoXGanELAAANiqtNF7Q0AgCQJDQCAJBU2XT6GdWoZn/5v2rEpo0b46tfvbYcDQBAK3jucy+JezZvjkolC4jZv7ynsV9LIwAASWO2NN71Ii2NAACt5IyvaGkEAGCahEYAAJKERgAAkoRGAACShEYAAJKERgAAkrLQmP/YTia/yX9zpzYEAEBLyTJgngVrfzUN/VoaAQBIEhoBAEgSGgEASBIaAQBIEhoBAEgSGgEASBIaAQBIEhoBZlJ1MGIo64Z/BA1gfhAaAWbK4G2x/yPr4763nBe7b32wLASYH4RGYJYdjr5rLo6tb1sT97/tYbH9K9fFUDlmsqo/fUc8+Adrs/nXx7ZPfSoG5nIrXn9PVHv3FY2NAPNJW+0USXkpQYDZ0J+FqIO7sm579H3vz+PwvqkckXbE4W9+Inr37czmfzAGD/aU5QA0Y/gIXG3Ih1m/lkZgjmiPtmUnRmX/v8aBH/5k8v+R3fEPceC2+6KyYn20VcoyAI45oRGYI9qjfdPF0bFof/Td+Ino6y2LJ9QdvTd9NHp7VkbHaWeEzAhw/AiNwBwxFLH0MdG5piuqD342Dtw+iS+KHPi36P7eLVFdfFF0re9qOKcCwLEmNAJzRP7ZmTNiyUVPjLbq1jj8rc9H/4TfiOmP/h9+KA7tjWg/59diyYmdE2bG6sHb4tD1b41dH3tWbL/ygtj+gefFzs9cHgfuvG/s+QbvjUPfeEfs+79XRPddD2QP0B0Dt1wRu//q+fHQJ94Q3Q8cLCcsDe2Pgdv/MvZ+5kXx0Acuim1XPjEe/Itfij1f/8fo6+4rJ2pQzZfaF4M/vSr2/u3PxIPvuyC2vf85sfPLfxGH906qmRVgRgmNwByRhaj2NdH1xNfF4hVtMbTl43Hwp93luDH03hgHv31DDC06L5Y+7ZJo7xvvCzB90X/DS2LbOx4dOz7/rjh42zeib9uPo+/ea6LnpvfGno+cH9s/+7kYGPVt5gPR/4P3ZqHxg3Fox+Y49OVnxra/elt03/JvcfjWa2OgIddVd3wmdv/JhnjgL14b+2+6Og7f+6Pof+B70Xv75+PAl3499t58fzllg8N3Rs/Vz43tH/y12P/9f4verbdE/33XRc91r4+H3ntp7Nuyv5wQYG4QGoG5YygLjqt+NpY/9pyo9N8SPdd/bZyf36nG4O0fiYPbe6Ntw2ti+aZ1UWkvYueYqj0PRXXJ42LZCz8f6/7nQ3Hae7rjtD/6z1j7M5dGeyULhzf9buy9dXs59WjV+/537Pn2juh65p/Fmv9+XZz8K2+IzsW1pVV3fip2ffgV0X3/3mhb97JY9d9ujVPenT3+u3fEKW++Jk582jOifVExaYPBbP3fFXu/uy8Wv+iaeNg7dsepV9wf63/td6JraXZY7vlmHPjyX0T/QDk5wBwgNAJzzMroevKrslA2FAO3fSR6do6RnAZ/HD3f+Ocsej0sFj/tl6IjC4zjq0TbIy+PtZffFCdd8ovRddKaqHQsjsqys2LJ8z8eqx61Lkt+W6P35hvHCaj7o//Oe6PrF6+LtS/+rVh61rNi8RNeF0sftjwLuXfGwX/47ejZOxhtm94Za3/7M7HivPOjvWtJVLpOivb1l8Tyl34lTnrCxvKx6nZG74+3xOJfviZOuvi50bFiVbQtOSU6H/ueWPOS/5IF2eyht34pDu0Y47Q2wCwRGoE5p7L+V+KEcx5etLh1f/eHo1oQhzZ/LLq37I/Kumy6cx9Wlo6nIxad+cLozFvwRqqcEl1nPzo7EFZjaPddMTjyFHXxucPDMbT40jjhwtHfzh7a8rE4cNfuiK6nx4qXvim6Fo/z/e3KyPJKtJ/z5lhxbhZYj9JefD5z8eosBfffG/07naIG5g6hEZh7sjC3+GkvjY72nuj73kfjcON3TvIvyXzzc9E/uCI6n/Tr0bm4LJ+san9Ue7bGwP3/Hoe+/7Houa8MZv0HojqyqbEIe52x6OwXREdnreiI3hi46+sxMJAdSDe9IpauHzXBBBZH+yMfW7QojtJ1Sixa2pGtZ28MHTpcFgLMPqERmJPaNv5GLN+4MmLXl6L71i1laZaltn8mDty+PWLlz8QJF503ud9mrB6MgVveFbs/elE88LaVcd/bTosH3ves2HHV62Pvjd+pnZYuWhXHsiTaV588xnIOxOBDD0Q1OqL94eePHQDHtTwWnbhm7HVvWxFtS7LQmLevjkqxALOnrThMlje1fwBzQPGt6OdlYWxXHL7+qujrzwv3Ru/1H4u+3o7ouPB1sXjlJJLa4B1x8KoLY9sn3hrdt/8khpZeEEse/4ZY+fMfizWv/Xqs+6WX1QLfqFPIdV1ZiFtS9jeoHipbAtuj0jnG+AlNKWECzIg8A9Zy4JG+RloagTmqEu3n/mYsXdcV1fv/Orrv3JllxqvjwH/cGdWuJ8eypzxtEgewwRj4/pti7w/vjuqKn4vVv701Tn37jbH2sg/Eyme/Jpaee3F0LJ/wWzTjqyyOSld+Sro3Bnf+1H+4gQVPaATmrsVPjuVPfnK0DW2JQzd+MQ798G+itzui/ezXxbJJfYZwd/T/5/disNoVnU98eyx/xIlleV1/DO7YXPzSz/inp8ezIhY97BFZtK3G0M6fxKCfxwEWOKERmMO6ouOx/z0Wr8zPMn8o9t347RhqPzuWPuMFk/sM4dDOGNizL+vpjMrylaNPCvfdHD233NpkK2G2bmddGh35d1a2fDD2/fDeshxgYRIagblt5fPjhMeeG5XDt0Tfgz3R9ohXxvKNq8qRCW3rY9HavHXxQPT/x99HX+PV+Qbvi0P/+jvR/cCh2nATHzOsPOK1seKCR2apcVv0fPmy2HPz3SMC6FAMbftKHLzzvnIYYP4SGoE5bmV0Pvk10ZX/tE5lXSx++mXRMeoKK+NZHV1PeWV0duW/7fgH8eC7nx47/+H3Ys9nfyHrf0zsvP5QLL34RWWrZTOp8dRY+uK/jhUbs2DafX0c+OQF8cB7Lo4dn3lj7Pn8r8RDf3JmPPC+10TPbp94BOY/oRGYfZ3Lo9K+PNoWj50GK+teFssvODPaHn5ZLD/v1LJ0hPau7DEWRyVPiA3aNrwl1lz2u7F4ZVdU91wfPd96Xxy48Z+ir/rUWPnqv48TTj0pKh3ZvPl55pEWLckeMyufKE8ue1asev2NseaSF8Sirr4Y3PaNOHTTB+PA9Z+Nw/c9GJVHvDAWn3zk29WVjuwxO1cUlz0cT2XR0to0kw7HAMdfZeOm06v5B8CLf9n9pk2b4u4XfbUcDTADqoNRHRqKSluWksb76ZtsmuL/ueOOH6p1eRoba5qhnhjatyUG9nZHZcWm2u8k5pPV54tsvrYR8w2V327J09s4iz3KUHcM7ro7Brt7Ipasj/ZVD4/2xUeH2Ek95lSXC3AMnP6V58Y992wujo2V7Cb/lw/U+rU0AnNBFvRqLXoTJKTxwmBdJTucTRQ625ZG2+rzonPjE6Mjv/50fbL6fCMDY64on0Jwa1se7WsvzJbxlOhcv3F0YMxN5jGnulyAGSA0AgCQJDQCAJAkNAIAkFSExuLHIOq/COGXIQAAWk89EOZ/tbtyOP+6tJZGAAAmQWgEACBJaAQAIEloBAAgSWgEACBJaAQAIEloBAAgSWgEACCpsnHT6dVM+cON1di0cVN87WtfLUcDANAKnvOc58Y9m++JSvYvKtlt0WW95bCWRgAAkrLQOHyRmHovAAAt6kgczM9EHxnW0ggAQJLQCABAktAIAECS0AgAQJLQCABAktAIAECS0AgAQJLQCABAktAIAECS0AgAQJLQCABAUlvj9aZrvQ0FAAC0jGpjDBwRCbU0AgCQJDQCAJAkNAIAkCQ0AgCQJDQCAJAkNAIAkCQ0AgCQJDQCAJAkNAIAkCQ0AgCQVAuNxTVjXD4QAKB11bNgdl9eT/DIbVVLIwAAaUIjAABJQiMAAElCIwAASUIjAABJQiMAAElCIwAASUIjAABJQiMAAElCIwAASUIjAABJbfWrDNYuLjg8BABACxm+znQZB4eH89vsTksjAABJQiMAAElCIwAASUIjAABJQiMAAElCIwAASUIjAABJQiMAAElCIwAASUIjAABJWWis1q8WU1wpZrgfAIDWUgbBo/JgOaClEQCAJKERAIAkoREAgCShEQCAJKERAIAkoREAgCShEQCAJKERAIAkoREAgCShEQCAJKERAICktjGvMQgAQEuqZcLstnp0OtTSCABAktAIAECS0AgAQJLQCABAktAIAECS0AgAQJLQCABAktAIAECS0AgAQJLQCABAUhka88vEVF1KEACghY3KgvnVBMteLY0AACQJjQAAJAmNAAAkCY0AACQJjQAAJAmNAAAkCY0AACQJjQAAJAmNAAAkCY0AACSNCI0N14oBAKDF5EHwSBis9dXKtDQCAJAkNAIAkCQ0AgCQJDQCAJAkNAIAkCQ0AgCQJDQCAJAkNAIAkCQ0AgCQJDQCAJAkNAIAkNRWXFPwyCUGAQBoRfU8WLvU9NHxMBvQ0ggAQJLQCABAktAIAECS0AgAQJLQCABAktAIAECS0AgAQJLQCABAktAIAECS0AgAQFIRGovLxJSXjAEAoEWVWXCsSKilEQCAJKERAIAkoREAgCShEQCAJKERAIAkoREAgCShEQCAJKERAIAkoREAgCShEQCAJKERAICkLDTWri7ostMAABydCbOh2p+WRgAA0oRGAACShEYAAJKERgAAkoRGAACShEYAAJKERgAAkoRGAACShEYAAJKERgAAksrQ6CKCAACtrTEP5v3l9QNLWhoBAEgSGgEASBIaAQBIEhoBAEgSGgEASBIaAQBIEhoBAEgSGgEASBIaAQBIEhoBAEgSGgEASBojNLoONQBA6zo6C9aHtDQCAJAkNAIAkCQ0AgCQJDQCAJAkNAIAkCQ0AgCQJDQCAJAkNAIAkCQ0AgCQJDQCAJDUVlwbprg+TPVILwAALaWWAxuSYNZ7ZKiqpREAgDShEQCAJKERAIAkoREAgCShEQCAJKERAIAkoREAgCShEQCAJKERAIAkoREAgCShEQCApLajrzV99BAAAC0mj4NHXXe6RksjAABJQiMAAElCIwAASUIjAABJQiMAAElCIwAASUIjAABJQiMAAElCIwAASUIjAABJbZWyp3atmOEhAABa0ThxUEsjAABJQiMAAElCIwAASUIjAABJQiMAAElCIwAASUIjAABJQiMAAElCIwAASUIjAABJbcXVA4cdPQQAADktjQAAJAmNAAAkCY0AACQJjQAAJAmNAAAkCY0AACQJjQAAJAmNAAAkCY0AACQJjQAAJAmNAAAkCY0AANRUy+4otQKhEQCAJKERAIAkoREAgCShEQCAJKERAIAkoREAgCShEQCAJKERAIAkoREAgCShEQCApCI0Dl8tZtRlYwAAaDVjXUlQSyMAAElCIwAASUIjAABJQiMAAElCIwAASUIjAABJQiMAAElCIwAASUIjAABJQiMAAElCIwAASVlodMFpAABGyjNi1tX+tDQCAJAmNAIAkCQ0AgCQJDQCAJAkNAIAkCQ0AgCQJDQCAJAkNAIAkCQ0AgCQJDQCAJAkNAIAkCQ0AgCQJDQCAJAkNAIAkCQ0AgCQJDQCAJAkNAIAkCQ0AgCQJDQCAJAkNAIAkCQ0AgCQJDQCAJAkNAIAUFMp7wvlQHaX9wmNAAAkCY0AACQJjQAAJAmNAAAkCY0AACQJjQAAJAmNAAAkCY0AACQJjQAAJAmNAAAklaGxWrsDAKB1jRUJs7K8WEsjAABJQiMAAElCIwAASUIjAABJQiMAAElCIwAASUIjAABJQiMAAElCIwAASUIjAABJZWisHHUHAECrO/qagloaAQBIEhoBAEgSGgEASBIaAQBIEhoBAEgSGgEASBIaAQBIEhoBAEgSGgEASBIaAQBIEhoBAEgSGgEAqKmU92MQGgEASBIaAQBIEhoBAEgSGgEASBIaAQBIEhoBAEgSGgEASBIaAQBIEhoBAEgSGgEASBIaAQA4Su1qgkdfU1BoBAAgSWgEACBJaAQAIEloBAAgSWgEACBJaAQAIEloBAAgSWgEACBJaAQAIEloBAAgSWgEACBJaAQAYBxHrj8tNAIAkCQ0AgCQJDQCAJAkNAIAkCQ0AgCQJDQCAJAkNAIAkCQ0AgCQJDQCAJAkNAIAkJSFxkrtAjFHrhIDAECLG46GWU/er6URAIAkoREAgCShEQCAJKERAIAkoREAgKQRobH8JjUAAK0pD4MjA2E23FaUSYoAAC2tlhXHCoW1slpLY7W4LYoGBgdjx44dtQIAABa8PPsNDAyWQ2NrK2Nl/SZ6D/fGHXfeWfQDALDw5dnvcO/hcqiWCfO7sq8w/JnGemFvX2/ceccd5RAAAAtdnv36evuK/lomPBIcayr10HhkRPeB7vj0p/8u7r///loZAAALVp758uzX3d3dEBJztYF6URYajwTGXH9/f2zfvj0+9OEP1woAAFiw8syXZ788AxayTFgPivWBfLh91arVf1gpxhwZnZ/T3rVzV9x9991xzjnnxIoVK8oxAAAsBHkL4xVXvCu+dt3XYteuXUVZJQ+FWVfcFWnxSH9lw4aN1Wpk//JvUNf6av2ZlStXxPr16+Pll10WZ555Zpx11lmxdu3a2kgAAOaV/FvSd9xxR9x5553xt5/+dNHCuH/f/trIo4JiLSwWJUVRHho3ZqExC4nFzRjhsaNjUZyw/ITo7OqMxV2Lo729LRtTTDqBCUdOqOk5m1/kNMz8QufX05yVtZ1xLVL1Mq2xP2dHcWRe+GbhabbIls00+UxbZp/M/FJrgWumTbDQbFQ+Nv9Znd7ew9Hb11d8hrG/f6AWCosJyoA43F8bLkry/g0bNxXpsBYSszeF/K8crv01lNduhu/HU4xvVpOzzsYyp6Pp9W16XZt/krOweebXPplvWuRpklC8ETCe4k1zpk1jkc3POn+e52zsk+JU7UybxiIn3EbZqGJ8GQRr/bX74nkOlzWOH9F/dGjMHzW/z3qKv6P7R92Po5hnpk1jkRM9lwnNytNsgXWdjllY5HTMyjaCWVK88bSCJp/m9LbOrCy0KbNSD5rePNNY1zm2zOJxi7/G++y2sSwfrpfn8xQja/3F/cYsNBZvXPlf0dfYn2ksy//VCou/8ZRzNqfJWVtlmc2a1ro2axYWOZ2FzrPV5TiZjddKeUhmPLOweaa3yCbnnkfVYFbq7DQW2fT6LqRlFqOyKbL7Yrrh+8ayWn8xlPcXvUfGVzZuykJjfowsw2Fjf+3vyP3IVsfxFONn2jQW2fT6zsrTbIF1nY5ZWOR0Fjorq9sq5tPGLY7MC9/sPM1ZWOqsLHKGFzqNxc34uuaaXOS01nU2ljmRMgSOOhVdjKsNJ09Tb9x0epYF86Nr9hZfHGTz+6yn+CvvixCZj8rv6+MmUHugppRLmllNLnJa6zrDT3M+ret0zEr9mY55trrNa5knOsOyo3grmGdPs3iTnWkzvMj59hybXt95tsyJZi7GZDfFeh0VCI8uK4by/qJ3RFkeGou32vyYXobDo0JkWVa7z/qKv9r9eMo5mtPkrNNaZrOm9TRneH1nZfPMr33SrFl5nhw/s7E7i4My4ynfvuaPWVjdGd9G8+05NjnrrNS9WkpryoRzZiOL55P/Fcson93IYNhQVgw1lm3KWxqz/lpQrN9nb4O1wtobYvE3xv14JhiVMuHjTmQay2xW0+s6DfX9NKNmYZHNmo19Mp+2z2yZlf3SAspDOROZhU00K/tlHlWFWmCZWU3vk2mtanMzH69FFtug+Gu8L7dMft9QVis6elxEJf5/VD3Xn1I/4UMAAAAASUVORK5CYII=;" vertex="1" parent="1">
          <mxGeometry x="1298" y="210" width="653" height="523" as="geometry" />
        </mxCell>
      </root>
    </mxGraphModel>
  </diagram>
</mxfile>
